<svg xmlns="http://www.w3.org/2000/svg" xmlns:xlink="http://www.w3.org/1999/xlink" version="1.1" id="Layer_1" x="0px" y="0px" style="enable-background:new 0 0 1920 1080;" xml:space="preserve" viewBox="208.6 356.51 1502.79 366.98">
<style type="text/css">
	.st0{fill:url(#SVGID_1_);}
	.st1{fill:url(#SVGID_00000121961285213654714430000010866084779284270732_);}
	.st2{fill:#FFFFFF;}
	.st3{fill:url(#SVGID_00000050649131221970171400000018182122608493010304_);}
	.st4{fill:url(#SVGID_00000006667353113354782990000005547722271709709701_);}
	.st5{fill:url(#SVGID_00000048472899939775570630000010174303097021103538_);}
	.st6{fill:url(#SVGID_00000173881157634580314370000004697113434508678546_);}
</style>
<g>
	<linearGradient id="SVGID_1_" gradientUnits="userSpaceOnUse" x1="1421.7545" y1="540" x2="1469.6782" y2="540">
		<stop offset="0" style="stop-color:#0369B3"/>
		<stop offset="1" style="stop-color:#3EC3DA"/>
	</linearGradient>
	<path class="st0" d="M1421.75,428.18v223.65h47.92V428.18H1421.75z"/>
	
		<linearGradient id="SVGID_00000018220225933779724370000009678312897476625033_" gradientUnits="userSpaceOnUse" x1="1533.7627" y1="540" x2="1711.4" y2="540">
		<stop offset="0" style="stop-color:#0369B3"/>
		<stop offset="1" style="stop-color:#3EC3DA"/>
	</linearGradient>
	<path style="fill:url(#SVGID_00000018220225933779724370000009678312897476625033_);" d="M1533.76,428.18v41.54h64.86v182.11h47.92   V469.72h64.85v-41.54H1533.76z"/>
	<g>
		<polygon class="st2" points="649.69,560.77 649.69,610.28 764.04,610.28 764.04,651.83 608.14,651.83 608.14,519.23     764.04,519.23 764.04,560.77   "/>
		<rect x="608.14" y="428.18" class="st2" width="155.9" height="41.54"/>
	</g>
	<g>
		<polygon class="st2" points="1242.25,560.76 1242.25,610.27 1356.61,610.27 1356.61,651.82 1200.71,651.82 1200.71,519.22     1356.61,519.22 1356.61,560.76   "/>
		<rect x="1200.71" y="428.18" class="st2" width="155.9" height="41.54"/>
	</g>
	<g>
		<g>
			
				<linearGradient id="SVGID_00000127754557877434148270000003138747131317117333_" gradientUnits="userSpaceOnUse" x1="819.4724" y1="539.9962" x2="1146.1532" y2="539.9962">
				<stop offset="0" style="stop-color:#0369B3"/>
				<stop offset="1" style="stop-color:#3EC3DA"/>
			</linearGradient>
			<polygon style="fill:url(#SVGID_00000127754557877434148270000003138747131317117333_);" points="919.76,428.18 982.38,428.18      893.72,539.98 982.38,651.82 919.76,651.82 835,547.16 829.19,539.98 835,532.83    "/>
		</g>
		<g>
			
				<linearGradient id="SVGID_00000171699923911437198810000013900951654210658209_" gradientUnits="userSpaceOnUse" x1="802.882" y1="539.9962" x2="1129.5629" y2="539.9962">
				<stop offset="0" style="stop-color:#0369B3"/>
				<stop offset="1" style="stop-color:#3EC3DA"/>
			</linearGradient>
			<polygon style="fill:url(#SVGID_00000171699923911437198810000013900951654210658209_);" points="1044.99,428.18 982.38,428.18      1071.03,539.98 982.38,651.82 1044.99,651.82 1129.76,547.16 1135.56,539.98 1129.76,532.83    "/>
		</g>
	</g>
	<g>
		
			<linearGradient id="SVGID_00000178177080172773069680000016904103083175184292_" gradientUnits="userSpaceOnUse" x1="292.8957" y1="594.1976" x2="527.0084" y2="594.1976">
			<stop offset="0" style="stop-color:#0369B3"/>
			<stop offset="1" style="stop-color:#3EC3DA"/>
		</linearGradient>
		<path style="fill:url(#SVGID_00000178177080172773069680000016904103083175184292_);" d="M388.34,723.49    c-38.47-0.05-73.18-22.9-87.64-57.67c-15.28-36.73-7.83-77.07,19.86-104.96c28.54-28.75,57.33-57.26,86.13-85.75    c13.99-13.84,36.59-13.52,50.46,0.43c13.27,13.33,13.71,36.46,0.37,49.96c-27.96,28.29-56.25,56.27-84.33,84.44    c-9.03,9.07-10.63,20.22-4.68,30.16c7.99,13.35,25.49,15.3,37.29,3.76c20.02-19.56,39.64-39.53,59.71-59.05    c16.15-15.71,39.77-13.97,53.75,3.52c10.31,12.89,10.64,32.92-0.84,44.79c-22.35,23.11-44.95,46.05-68.5,67.92    C432.93,716.82,411.61,723.5,388.34,723.49z"/>
		
			<linearGradient id="SVGID_00000008872046725821246300000009880557699978943127_" gradientUnits="userSpaceOnUse" x1="208.6" y1="487.4453" x2="407.4077" y2="487.4453">
			<stop offset="0" style="stop-color:#0369B3"/>
			<stop offset="1" style="stop-color:#3EC3DA"/>
		</linearGradient>
		<path style="fill:url(#SVGID_00000008872046725821246300000009880557699978943127_);" d="M244.94,618.38    c-16.5-12.75-26.75-28.37-32-46.91c-10.38-36.64-2.15-69.06,24.75-96.09c35.84-36.02,72.07-71.65,108.19-107.39    c15.42-15.25,37.99-15.31,52.57-0.18c11.62,12.05,12.98,35.82-2.1,50.45c-35.4,34.35-69.65,69.87-104.88,104.4    c-25.34,24.84-40.92,54.16-44.97,89.5C246.3,613.82,245.69,615.43,244.94,618.38z"/>
	</g>
</g>
</svg>