<?xml version="1.0" encoding="utf-8"?>
<!-- Generator: Adobe Illustrator 28.0.0, SVG Export Plug-In . SVG Version: 6.00 Build 0)  -->
<svg version="1.1" id="Layer_1" xmlns="http://www.w3.org/2000/svg" xmlns:xlink="http://www.w3.org/1999/xlink" x="0px" y="0px"
	 viewBox="0 0 1920 1080" style="enable-background:new 0 0 1920 1080;" xml:space="preserve">
<style type="text/css">
	.st0{fill:url(#SVGID_1_);}
	.st1{fill:url(#SVGID_00000028294069919234435900000009725053671350814384_);}
	.st2{fill:#282A2C;}
	.st3{fill:url(#SVGID_00000124872374464882488760000006887702938887262137_);}
	.st4{fill:url(#SVGID_00000017483079190468578250000005049375744854424724_);}
	.st5{fill:url(#SVGID_00000084523322514860636220000016220168012214489267_);}
	.st6{fill:url(#SVGID_00000076587489667548764240000016635200693180979623_);}
</style>
<linearGradient id="SVGID_1_" gradientUnits="userSpaceOnUse" x1="1401.0276" y1="541.1965" x2="1446.5945" y2="541.1965">
	<stop  offset="0" style="stop-color:#0369B3"/>
	<stop  offset="1" style="stop-color:#3EC3DA"/>
</linearGradient>
<path class="st0" d="M1401.03,434.87v212.65h45.57V434.87H1401.03z"/>
<linearGradient id="SVGID_00000060018192890393096720000002119450324999112595_" gradientUnits="userSpaceOnUse" x1="1507.5273" y1="541.1965" x2="1676.4286" y2="541.1965">
	<stop  offset="0" style="stop-color:#0369B3"/>
	<stop  offset="1" style="stop-color:#3EC3DA"/>
</linearGradient>
<path style="fill:url(#SVGID_00000060018192890393096720000002119450324999112595_);" d="M1507.53,434.87v39.5h61.67v173.15h45.57
	V474.37h61.66v-39.5H1507.53z"/>
<g>
	<g>
		<g>
			<polygon class="st2" points="666.93,560.95 666.93,608.02 775.66,608.02 775.66,647.52 627.43,647.52 627.43,521.45 
				775.66,521.45 775.66,560.95 			"/>
		</g>
		<g>
			<rect x="627.43" y="434.87" class="st2" width="148.24" height="39.5"/>
		</g>
	</g>
</g>
<g>
	<g>
		<g>
			<polygon class="st2" points="1230.35,560.94 1230.35,608.02 1339.09,608.02 1339.09,647.51 1190.85,647.51 1190.85,521.44 
				1339.09,521.44 1339.09,560.94 			"/>
		</g>
		<g>
			<rect x="1190.85" y="434.87" class="st2" width="148.24" height="39.5"/>
		</g>
	</g>
</g>
<g>
	<g>
		
			<linearGradient id="SVGID_00000035497687019147135950000001696801260846981557_" gradientUnits="userSpaceOnUse" x1="828.3652" y1="541.1928" x2="1138.9801" y2="541.1928">
			<stop  offset="0" style="stop-color:#0369B3"/>
			<stop  offset="1" style="stop-color:#3EC3DA"/>
		</linearGradient>
		<polygon style="fill:url(#SVGID_00000035497687019147135950000001696801260846981557_);" points="923.72,434.87 983.26,434.87 
			898.96,541.18 983.26,647.51 923.72,647.51 843.13,548.01 837.61,541.18 843.13,534.38 		"/>
	</g>
	<g>
		
			<linearGradient id="SVGID_00000055691772980858718920000003265735426263787675_" gradientUnits="userSpaceOnUse" x1="812.5908" y1="541.1928" x2="1123.2057" y2="541.1928">
			<stop  offset="0" style="stop-color:#0369B3"/>
			<stop  offset="1" style="stop-color:#3EC3DA"/>
		</linearGradient>
		<polygon style="fill:url(#SVGID_00000055691772980858718920000003265735426263787675_);" points="1042.79,434.87 983.26,434.87 
			1067.55,541.18 983.26,647.51 1042.79,647.51 1123.39,548.01 1128.91,541.18 1123.39,534.38 		"/>
	</g>
</g>
<g>
	
		<linearGradient id="SVGID_00000149371190783807888120000005994993731728315326_" gradientUnits="userSpaceOnUse" x1="327.6851" y1="592.7287" x2="550.2844" y2="592.7287">
		<stop  offset="0" style="stop-color:#0369B3"/>
		<stop  offset="1" style="stop-color:#3EC3DA"/>
	</linearGradient>
	<path style="fill:url(#SVGID_00000149371190783807888120000005994993731728315326_);" d="M418.44,715.67
		c-36.58-0.05-69.58-21.78-83.33-54.84c-14.53-34.92-7.44-73.28,18.88-99.79c27.14-27.34,54.51-54.44,81.9-81.54
		c13.3-13.16,34.79-12.85,47.98,0.4c12.61,12.68,13.03,34.67,0.35,47.5c-26.59,26.9-53.48,53.5-80.18,80.29
		c-8.59,8.62-10.11,19.22-4.45,28.68c7.6,12.69,24.23,14.54,35.45,3.58c19.03-18.6,37.69-37.59,56.77-56.14
		c15.36-14.93,37.81-13.28,51.11,3.35c9.8,12.26,10.11,31.3-0.8,42.58c-21.25,21.97-42.74,43.79-65.13,64.58
		C460.83,709.32,440.56,715.67,418.44,715.67z"/>
	
		<linearGradient id="SVGID_00000054231762311005157790000013401239814134872233_" gradientUnits="userSpaceOnUse" x1="247.535" y1="491.2264" x2="436.5656" y2="491.2264">
		<stop  offset="0" style="stop-color:#0369B3"/>
		<stop  offset="1" style="stop-color:#3EC3DA"/>
	</linearGradient>
	<path style="fill:url(#SVGID_00000054231762311005157790000013401239814134872233_);" d="M282.09,615.73
		c-15.69-12.12-25.43-26.98-30.42-44.6c-9.87-34.84-2.05-65.66,23.53-91.37c34.08-34.25,68.52-68.13,102.87-102.11
		c14.66-14.5,36.12-14.55,49.98-0.17c11.05,11.46,12.34,34.05-2,47.97c-33.66,32.66-66.23,66.43-99.73,99.26
		c-24.1,23.62-38.91,51.5-42.75,85.1C283.39,611.38,282.8,612.92,282.09,615.73z"/>
</g>
</svg>
